# xmcd
#
# Track frame offsets: 
#        183
#        20208
#        37660
#        59560
#        79073
#        96358
#        115578
#        135205
#        153838
#        172858
#        189970
#
# Disc length: 2800 seconds
#
# Revision: 2
# Processed by: cddbd v1.5.2PL0 Copyright (c) Steve Scherf et al.
# Submitted via: ExactAudioCopy v0.99pb4
#
DISCID=7a0aee0b
DTITLE=Father MC - Sex Is Law
DYEAR=1993
DGENRE=Rap
TTITLE0=69
TTITLE1=R&B Swinger
TTITLE2=Sex Is Law
TTITLE3=Once She Gets Pumpin'
TTITLE4=On And On
TTITLE5=I Beeped You
TTITLE6=Ain't Nuttin But A Party
TTITLE7=Now Is The Time
TTITLE8=For The Brothers Who Ain't Here
TTITLE9=The Wiggle
TTITLE10=Something From The Radio
EXTD=
EXTT0=
EXTT1=
EXTT2=
EXTT3=
EXTT4=
EXTT5=
EXTT6=
EXTT7=
EXTT8=
EXTT9=
EXTT10=
PLAYORDER=
